# xmcd
#
# Track frame offsets: 
#        150
#        13565
#        25552
#        37143
#        54716
#        68438
#        80891
#        93949
#        105465
#        117561
#        129579
#        142418
#        154191
#        167633
#        180864
#        195170
#        208247
#        218582
#        232047
#        245975
#        258817
#        273663
#
# Disc length: 3824 seconds
#
# Revision: 0
# Processed by: cddbd v1.5.2PL0 Copyright (c) Steve Scherf et al.
# Submitted via: ExactAudioCopy v0.99pb4
#
DISCID=3b0eee16
DTITLE=Howlin' Wolf - Moanin' the Blues
DYEAR=2005
DGENRE=Blues
TTITLE0=The Wolf is at Your Door
TTITLE1=How Many More  Years
TTITLE2=Morning at Midnight
TTITLE3=Crying at Daybreak
TTITLE4=Riding In the Moonlight
TTITLE5=I Want Your Picture
TTITLE6=My Baby Stole Off
TTITLE7=Saddle My Pony
TTITLE8=Howlin' Wolf Boogie
TTITLE9=Getting Old and Gray
TTITLE10=Mr. Highwway Man
TTITLE11=Oh! Red
TTITLE12=My Last Affair
TTITLE13=No Place to Go
TTITLE14=Worried All the Time
TTITLE15=Evil is Going On
TTITLE16=All Night Boogie
TTITLE17=I Love My Baby
TTITLE18=Rockin' Daddy
TTITLE19=Forty-Four
TTITLE20=I'll Be Around
TTITLE21=Baby How Long
EXTD=
EXTT0=
EXTT1=
EXTT2=
EXTT3=
EXTT4=
EXTT5=
EXTT6=
EXTT7=
EXTT8=
EXTT9=
EXTT10=
EXTT11=
EXTT12=
EXTT13=
EXTT14=
EXTT15=
EXTT16=
EXTT17=
EXTT18=
EXTT19=
EXTT20=
EXTT21=
PLAYORDER=
